<svg width="28" height="28" viewBox="0 0 28 28" fill="none" xmlns="http://www.w3.org/2000/svg">
<g clip-path="url(#clip0)">
<path d="M27.9268 10.7396C27.7424 10.1726 27.2395 9.77121 26.6469 9.71759L18.5642 8.98378L15.3698 1.50514C15.134 0.955694 14.5973 0.601074 14 0.601074C13.4027 0.601074 12.8659 0.955694 12.6315 1.50514L9.43719 8.98378L1.35313 9.71759C0.760528 9.77228 0.258719 10.1737 0.0732909 10.7396C-0.111069 11.3065 0.0591915 11.9284 0.50738 12.3215L6.61732 17.679L4.8158 25.6135C4.68399 26.197 4.91044 26.8002 5.39452 27.1502C5.65471 27.3392 5.96041 27.4336 6.26718 27.4336C6.5308 27.4336 6.79462 27.3636 7.03025 27.2226L14 23.0552L20.9685 27.2226C21.4797 27.5281 22.1225 27.5001 22.6056 27.1502C23.0896 26.8002 23.3161 26.197 23.1843 25.6135L21.3828 17.679L27.4927 12.3215C27.9407 11.9284 28.1111 11.3078 27.9268 10.7396V10.7396Z" fill="#FFE900"/>
</g>
<defs>
<clipPath id="clip0">
<rect width="28" height="28" fill="white"/>
</clipPath>
</defs>
</svg>
